<?xml version="1.0" encoding="utf-8"?>
<!-- Generator: Adobe Illustrator 27.1.1, SVG Export Plug-In . SVG Version: 6.00 Build 0)  -->
<svg version="1.1" id="Capa_1" xmlns="http://www.w3.org/2000/svg" xmlns:xlink="http://www.w3.org/1999/xlink" x="0px" y="0px"
	 viewBox="0 0 500 500" style="enable-background:new 0 0 500 500;" xml:space="preserve">
<style type="text/css">
	.st0{fill:#08A5F0;}
	.st1{fill:#281350;}
</style>
<g>
	<g transform="translate(289.771949, 199.066511)">
		<g>
			<path class="st0" d="M106.9,10.7v12.1c0,0.9,0.3,1.6,0.8,2.3c0.6,0.7,1.2,1.1,1.9,1.3l58.6,17c0.7,0.2,1,0.7,1,1.3s-0.3,1-1,1.2
				l-58.6,17c-0.8,0.2-1.4,0.7-1.9,1.4c-0.5,0.7-0.8,1.4-0.8,2.2v12c0,1.4,0.6,2.3,1.5,3.1c1,0.8,2.1,0.9,3.3,0.5L200,56.4
				c0.8-0.2,1.4-0.7,1.9-1.4c0.6-0.6,0.8-1.4,0.8-2.2V36.2c0-0.8-0.2-1.5-0.8-2.2c-0.5-0.6-1.2-1.1-1.9-1.4L111.7,7.1
				c-1.2-0.3-2.3-0.1-3.3,0.7C107.4,8.5,106.9,9.5,106.9,10.7z"/>
		</g>
	</g>
</g>
<g>
	<g transform="translate(73.821511, 167.842488)">
		<g>
			<path class="st0" d="M16.2,109.5V97.5c0-0.9-0.3-1.6-0.7-2.3c-0.5-0.7-1-1.1-1.7-1.3l-51.1-17c-0.6-0.2-0.8-0.7-0.8-1.3
				s0.2-1,0.8-1.2l51.1-17c0.7-0.2,1.2-0.7,1.7-1.4c0.4-0.7,0.7-1.4,0.7-2.2V42c0-1.4-0.5-2.3-1.4-3.1C14,38.1,13,38,12,38.4
				l-77,25.4c-0.7,0.2-1.3,0.7-1.7,1.4c-0.5,0.6-0.7,1.4-0.7,2.2v16.7c0,0.8,0.2,1.5,0.7,2.2c0.4,0.6,1,1.1,1.7,1.4l77,25.5
				c1,0.3,2,0.1,2.9-0.7C15.7,111.8,16.2,110.8,16.2,109.5z"/>
		</g>
	</g>
</g>
<g>
	<g transform="translate(114.626152, 238.794788)">
		<g>
			<path class="st1" d="M174.6-148h-31.1c-4.5,0-8.3,1.6-11.5,4.8c-3.2,3.2-4.5,7-4.5,11.5V48c0,10.3-1.3,19.2-3.9,26.6
				c-2.6,7.4-5.8,13.5-9.6,18.3c-3.8,4.8-8.3,8.3-13.4,10.6c-5.1,2.6-10.3,3.5-15.4,3.5c-9.6,0-18.3-3.5-26.3-10.9
				c-8-7-13.1-18.6-15.4-34c-0.6-3.8-2.2-7.4-5.1-9.9c-3.2-2.6-6.7-4.2-10.9-4.2H-3.8c-4.8,0-8.6,1.9-11.8,5.4
				c-3.2,3.5-4.8,7.7-4.2,12.2c0.6,9,2.2,17,4.5,24.3c2.2,7.4,4.8,14.1,7.7,19.9c2.6,5.8,5.8,11.2,9,15.7c3.2,4.5,6.4,8.6,9.6,11.8
				c9.6,10.6,20.8,18.6,33.6,24.3c12.8,5.8,26.6,8.6,40.7,8.6c12.8,0,25.6-2.6,38.4-7.7s24-13.1,34-23.4c9.9-10.2,17.9-22.7,24-38.1
				c6.1-15.4,9.3-33,9.3-53.2v-179.7c0-4.5-1.6-8.3-4.8-11.5C182.9-146.4,179.1-148,174.6-148z"/>
		</g>
	</g>
</g>
<g>
	<g transform="translate(206.120016, 234.514569)">
		<g>
			<path class="st1" d="M163,162.7h-42.4v-123H163V162.7z M119.5,9.2c0-6.4,1.8-11.1,5.3-14.2c3.5-3.1,9.3-4.7,17.1-4.7
				c7.9,0,13.6,1.6,17.2,4.8c3.6,3.2,5.4,7.9,5.4,14.1c0,12.5-7.5,18.7-22.6,18.7C127,27.9,119.5,21.7,119.5,9.2z"/>
		</g>
	</g>
</g>
<g id="Capa_2">
	<g id="XMLID_00000142168496523759807640000010504833767334231727_">
		<g>
		</g>
		<g>
		</g>
	</g>
</g>
</svg>
