<?xml version="1.0" encoding="utf-8"?>
<!-- Generator: Adobe Illustrator 27.1.1, SVG Export Plug-In . SVG Version: 6.00 Build 0)  -->
<svg version="1.1" id="Capa_1" xmlns="http://www.w3.org/2000/svg" xmlns:xlink="http://www.w3.org/1999/xlink" x="0px" y="0px"
	 viewBox="0 0 1169.7 373" style="enable-background:new 0 0 1169.7 373;" xml:space="preserve">
<style type="text/css">
	.st0{fill:#281350;}
	.st1{fill:#08A5F0;}
</style>
<g>
	<g transform="translate(124.665025, 266.28332)">
		<g>
			<path class="st0" d="M435.2-111.6c6.3,2.8,13.3,4.3,20.8,4.3c8.2,0,14.6-1.7,19.4-5.2s7.3-8.8,7.3-15.9c0-4.2-1.5-7.8-4.5-10.8
				c-3-3.1-6.6-5.7-10.9-7.6c-4.3-1.9-8.5-3.8-12.7-5.4c-4.3-1.5-7.9-3.3-10.9-5.4c-3-1.9-4.4-4.1-4.4-6.4c0-1.8,0.4-3.5,1.3-4.9
				c0.8-1.3,1.8-2.3,3-3c1.1-0.6,2.6-1.2,4.5-1.5c1.9-0.4,3.6-0.6,4.8-0.6c1.2,0,2.9-0.1,4.9-0.1c2.2,0,6.6,0.5,13.3,1.5
				c1.3,0,2.5-0.5,3.5-1.5c0.9-1,1.5-2.2,1.5-3.8c0-1.3-0.3-2.3-1.1-3.3c-0.7-1.1-1.7-1.7-2.8-1.9c-3.7-1-8.9-1.6-15.6-1.6
				c-4,0-7.4,0.4-10.4,0.9s-5.9,1.5-8.6,3c-2.9,1.5-5,3.8-6.5,6.7c-1.5,3.1-2.2,6.7-2.2,11.1c0,4.2,1.5,7.8,4.5,10.8
				c3,3.1,6.6,5.6,10.9,7.4c4.3,1.8,8.5,3.5,12.8,5c4.2,1.5,7.8,3.2,10.8,5.2c3,2.1,4.6,4.3,4.6,6.7c0,6.9-5.8,10.2-17,10.2
				c-6,0-12.5-0.9-19.3-2.8c-1.2,0-2.2,0.5-3,1.4c-0.9,0.9-1.3,1.9-1.3,3.2C431.9-113.8,433-112.4,435.2-111.6z"/>
		</g>
	</g>
</g>
<g>
	<g transform="translate(140.543836, 266.28332)">
		<g>
			<path class="st0" d="M521-107.3c2.9,0,5.6-0.3,8.5-0.9s5.9-1.9,9-3.8c3.1-1.8,5.8-4.3,8.2-7.1c2.4-2.8,4.3-6.8,5.9-11.7
				c1.6-4.9,2.4-10.5,2.4-16.8c0-6.6-1.1-12.4-3.1-17.5c-2.1-4.9-4.8-8.8-8.2-11.6c-3.4-2.9-6.9-4.9-10.8-6.2
				c-3.8-1.3-7.8-2.1-11.8-2.1c-4.1,0-8,0.8-11.9,2.1c-3.8,1.3-7.6,3.3-10.9,6.2c-3.4,2.8-6.1,6.7-8.1,11.6c-2,5-3,10.8-3,17.5
				c0,6.3,0.7,11.9,2.3,16.8c1.5,4.9,3.5,8.9,5.9,11.7c2.4,2.8,5.2,5.3,8.3,7.1c3.1,1.8,6,3.1,8.9,3.8
				C515.2-107.6,518.1-107.3,521-107.3z M521-117.9c-15.7,0-23.5-9.7-23.5-29.3c0-18.1,7.8-27.1,23.5-27.1c15.6,0,23.5,9,23.5,27.1
				C544.5-127.6,536.6-117.9,521-117.9z"/>
		</g>
	</g>
</g>
<g>
	<g transform="translate(158.461743, 266.28332)">
		<g>
			<path class="st0" d="M567.6-112.9v-25.7h25.1c1.3,0,2.5-0.5,3.5-1.5c1-1.1,1.5-2.2,1.5-3.8c0-1.4-0.5-2.7-1.5-3.8
				c-0.9-1-2.2-1.5-3.5-1.5h-25.1v-23.6h31.9c1.3,0,2.5-0.5,3.5-1.6c1-1,1.5-2.2,1.5-3.7c0-1.4-0.5-2.7-1.5-3.8
				c-0.9-1.1-2.2-1.6-3.5-1.6h-37.1c-1.5,0-2.8,0.6-3.7,1.7c-1,1.2-1.5,2.4-1.5,4v64.8c0,1.6,0.5,3,1.5,4c0.9,1.2,2.2,1.7,3.7,1.7
				c1.4,0,2.6-0.5,3.7-1.7C567.1-109.9,567.6-111.3,567.6-112.9z"/>
		</g>
	</g>
</g>
<g>
	<g transform="translate(174.059817, 266.28332)">
		<g>
			<path class="st0" d="M621.3-172.9v59.9c0,1.6,0.5,3,1.5,4c0.9,1.2,2.2,1.7,3.7,1.7c1.4,0,2.6-0.5,3.7-1.7c1-1.1,1.5-2.5,1.5-4
				v-59.9h16.5c1.3,0,2.5-0.5,3.5-1.6c0.9-1,1.4-2.2,1.4-3.7c0-1.4-0.5-2.7-1.4-3.8c-1-1.1-2.2-1.6-3.5-1.6h-43.5
				c-1.5,0-2.5,0.5-3.5,1.6c-0.9,1-1.5,2.3-1.5,3.8s0.5,2.7,1.5,3.7c0.9,1.1,2,1.6,3.5,1.6H621.3z"/>
		</g>
	</g>
</g>
<g>
	<g transform="translate(189.894305, 266.28332)">
		<g>
			<path class="st0" d="M697.3-183.5c-1.9,0-3.5,0.6-4.9,1.8c-1.5,1.3-2.4,2.7-2.9,4.5L674.7-121l-11.4-58.1
				c-0.3-1.2-0.9-2.2-1.9-3.1c-0.9-0.8-2.2-1.3-3.4-1.3c-1.4,0-2.6,0.6-3.6,1.7c-1.1,1.2-1.5,2.4-1.5,4l12.6,62.3
				c0.5,2.3,1.5,4.4,3.2,5.9s3.7,2.3,5.9,2.3s4.2-0.6,5.9-1.9s2.8-3.1,3.4-5.3l13.5-52.4l13.5,52.4c0.5,2.2,1.7,4,3.4,5.3
				s3.6,1.9,5.9,1.9c2.2,0,4.1-0.8,5.8-2.3c1.7-1.6,2.9-3.6,3.4-5.9l12.6-62.3c0-1.6-0.6-2.8-1.6-4c-1.1-1.1-2.3-1.7-3.6-1.7
				s-2.5,0.5-3.5,1.3c-0.9,0.9-1.5,1.9-1.8,3.1L720.1-121l-14.9-56.2c-0.5-1.8-1.4-3.2-2.9-4.5C700.8-182.9,699.1-183.5,697.3-183.5
				z"/>
		</g>
	</g>
</g>
<g>
	<g transform="translate(209.969513, 266.28332)">
		<g>
			<path class="st0" d="M759.7-183.5c-2,0-3.8,0.6-5.4,1.7c-1.6,1.2-2.7,2.7-3.3,4.5L729.5-115c-0.3,0.8-0.3,1.4-0.3,2.2
				c0,1.7,0.5,3,1.4,4s2.2,1.5,3.7,1.5c2.5,0,4.2-1.2,5-3.5l4.9-14.5h31l4.9,14.5c0.7,2.3,2.4,3.5,5,3.5c1.5,0,2.8-0.5,3.7-1.5
				c0.9-1.1,1.4-2.4,1.4-4c0-0.8-0.1-1.4-0.3-2.2l-21.6-62.3c-0.7-1.8-1.8-3.3-3.4-4.5C763.4-182.8,761.7-183.5,759.7-183.5z
				 M748-135.8l11.7-34.5l11.9,34.5H748z"/>
		</g>
	</g>
</g>
<g>
	<g transform="translate(226.483703, 266.28332)">
		<g>
			<path class="st0" d="M840.6-114.7l-1.1-3.6c-1.4-4.8-2.8-8.7-4.2-11.5c-1.3-2.8-3.1-5.4-5.5-8c3.2-0.9,5.9-2.8,7.9-5.7
				c1.9-2.9,3.2-5.6,3.8-8.3c0.6-2.6,0.9-5.3,0.9-7.8c0-8.2-2.2-14.2-6.5-18.1c-4.3-3.9-9.4-5.9-15.1-5.9H794
				c-1.5,0-2.8,0.6-3.7,1.7c-1,1.2-1.5,2.4-1.5,4v64.8c0,1.6,0.5,3,1.5,4c0.9,1.2,2.2,1.7,3.7,1.7c1.4,0,2.6-0.5,3.7-1.7
				c1-1.1,1.5-2.5,1.5-4v-21.1H815c6,0,10.3,4.6,13.1,13.7l2.9,9.6c0.7,2.5,2.3,3.6,4.8,3.6c1.3,0,2.5-0.5,3.6-1.5
				c0.9-1.1,1.5-2.4,1.5-3.9C840.8-113.7,840.7-114.2,840.6-114.7z M820-144.9h-20.7V-173H820c3.6,0,6.6,1,8.8,2.8s3.4,5.4,3.4,10.7
				c0,3.5-0.4,6.3-1,8.4c-0.7,2.1-1.7,3.6-3.1,4.4s-2.6,1.3-3.6,1.6C823.4-144.9,821.9-144.9,820-144.9z"/>
		</g>
	</g>
</g>
<g>
	<g transform="translate(242.731926, 266.28332)">
		<g>
			<path class="st0" d="M855.1-149.2v-23.6H887c1.3,0,2.5-0.5,3.5-1.6c1-1,1.5-2.2,1.5-3.7c0-1.4-0.5-2.7-1.5-3.8
				c-0.9-1.1-2.2-1.6-3.5-1.6h-37.1c-1.5,0-2.8,0.6-3.7,1.7c-1,1.2-1.5,2.4-1.5,4v64.8c0,1.6,0.5,3,1.5,4c0.9,1.2,2.2,1.7,3.7,1.7
				H887c1.3,0,2.5-0.5,3.5-1.5c1-1.1,1.5-2.2,1.5-3.8c0-1.4-0.5-2.7-1.5-3.8c-0.9-1-2.2-1.5-3.5-1.5h-31.9v-20.8h25.1
				c1.3,0,2.5-0.5,3.5-1.5c1-1.1,1.5-2.2,1.5-3.8c0-1.4-0.5-2.7-1.5-3.8c-0.9-1-2.2-1.5-3.5-1.5h-25.1V-149.2z"/>
		</g>
	</g>
</g>
<g>
	<g transform="translate(118.659021, 286.94914)">
		<g>
			<path class="st0" d="M431.2-70.2h-17.7c-1.5,0-2.8,0.6-3.7,1.7c-1,1.2-1.5,2.4-1.5,4V0.3c0,1.6,0.5,3,1.5,4
				c0.9,1.2,2.2,1.7,3.7,1.7h19.2c2.8,0,5.5-0.3,8.3-1c2.8-0.6,5.6-1.9,8.6-3.8c3-1.8,5.6-4.1,7.9-7c2.2-2.8,4.1-6.6,5.5-11.4
				c1.5-4.8,2.2-10.2,2.2-16.4c0-6.5-1.1-12.3-3.1-17.2c-2.2-4.9-4.9-8.8-8.3-11.5s-7-4.8-10.8-6.1S435.3-70.2,431.2-70.2z
				 M431.1-4.6h-12.3v-55h12.7c6.6,0,12.1,2.2,16.5,6.3c4.4,4.3,6.7,11,6.7,20.2c0,4.9-0.6,9.3-1.7,12.9s-2.4,6.5-3.8,8.4
				c-1.5,1.9-3.5,3.5-5.8,4.6C441-6,439-5.3,437.2-5C435.3-4.7,433.3-4.6,431.1-4.6z"/>
		</g>
	</g>
</g>
<g>
	<g transform="translate(135.439174, 286.94914)">
		<g>
			<path class="st0" d="M480.3-35.8v-23.7h31.9c1.3,0,2.5-0.5,3.5-1.6c1-1,1.5-2.2,1.5-3.7c0-1.4-0.5-2.7-1.5-3.8
				c-0.9-1.1-2.2-1.6-3.5-1.6H475c-1.5,0-2.8,0.6-3.7,1.7c-1,1.2-1.5,2.4-1.5,4V0.3c0,1.6,0.5,3,1.5,4c0.9,1.2,2.2,1.7,3.7,1.7h37.1
				c1.3,0,2.5-0.5,3.5-1.5c1-1.1,1.5-2.2,1.5-3.8c0-1.4-0.5-2.7-1.5-3.8c-0.9-1-2.2-1.5-3.5-1.5h-31.9v-20.8h25.1
				c1.3,0,2.5-0.5,3.5-1.5c1-1.1,1.5-2.2,1.5-3.8c0-1.4-0.5-2.7-1.5-3.8c-0.9-1-2.2-1.5-3.5-1.5h-25V-35.8z"/>
		</g>
	</g>
</g>
<g>
	<g transform="translate(151.111125, 286.94914)">
		<g>
			<path class="st0" d="M553.4,6c1.9,0,3.7-0.5,5.3-1.7c1.5-1.1,2.6-2.6,3.4-4.5l21.5-62.2c0.3-0.6,0.3-1.4,0.3-2.2
				c0-1.5-0.5-3-1.4-4c-0.9-1.1-2.3-1.6-3.7-1.6c-2.7,0-4.3,1.2-5,3.5L553.4-7.1L533-66.6c-0.8-2.4-2.5-3.5-5-3.5
				c-1.5,0-2.8,0.5-3.7,1.6c-0.9,1-1.4,2.5-1.4,4c0,0.8,0.1,1.6,0.3,2.2l21.5,62.2c0.6,1.9,1.7,3.5,3.3,4.5
				C549.6,5.5,551.4,6,553.4,6z"/>
		</g>
	</g>
</g>
<g>
	<g transform="translate(167.610528, 286.94914)">
		<g>
			<path class="st0" d="M596.1-35.9v-23.6H628c1.3,0,2.5-0.5,3.5-1.6c1-1,1.5-2.2,1.5-3.7c0-1.4-0.5-2.7-1.5-3.8
				c-0.9-1.1-2.2-1.6-3.5-1.6h-37.1c-1.5,0-2.8,0.6-3.7,1.7c-1,1.2-1.5,2.4-1.5,4V0.3c0,1.6,0.5,3,1.5,4c0.9,1.2,2.2,1.7,3.7,1.7
				H628c1.3,0,2.5-0.5,3.5-1.5c1-1.1,1.5-2.2,1.5-3.8c0-1.4-0.5-2.7-1.5-3.8c-0.9-1-2.2-1.5-3.5-1.5h-31.9v-20.8h25.1
				c1.3,0,2.5-0.5,3.5-1.5c1-1.1,1.5-2.2,1.5-3.8c0-1.4-0.5-2.7-1.5-3.8c-0.9-1-2.2-1.5-3.5-1.5L596.1-35.9L596.1-35.9z"/>
		</g>
	</g>
</g>
<g>
	<g transform="translate(183.282479, 286.94914)">
		<g>
			<path class="st0" d="M643.8,6h34.3c1.3,0,2.5-0.5,3.5-1.5c0.9-1.1,1.5-2.2,1.5-3.8c0-1.4-0.5-2.7-1.5-3.8c-0.9-1-2.2-1.5-3.5-1.5
				H649v-60c0-1.6-0.6-2.8-1.5-4c-1.1-1.1-2.3-1.7-3.7-1.7c-1.5,0-2.8,0.6-3.7,1.7c-1,1.2-1.5,2.4-1.5,4V0.2c0,1.6,0.5,3,1.5,4
				C641.1,5.4,642.4,6,643.8,6z"/>
		</g>
	</g>
</g>
<g>
	<g transform="translate(198.392947, 286.94914)">
		<g>
			<path class="st0" d="M717.8,6c2.9,0,5.6-0.3,8.5-0.9s5.9-1.9,9-3.8c3.1-1.8,5.8-4.3,8.2-7.1s4.3-6.8,5.9-11.7
				c1.6-4.9,2.4-10.5,2.4-16.8c0-6.6-1.1-12.4-3.1-17.5c-2.1-4.9-4.8-8.8-8.2-11.6c-3.4-2.9-6.9-4.9-10.8-6.2
				c-3.8-1.3-7.8-2.1-11.8-2.1c-4.1,0-8,0.8-11.9,2.1s-7.6,3.3-10.9,6.2c-3.4,2.8-6.1,6.7-8.1,11.6c-2,5-3,10.8-3,17.5
				c0,6.3,0.7,11.9,2.3,16.8c1.5,4.9,3.5,8.9,5.9,11.7s5.2,5.3,8.3,7.1s6,3.1,8.9,3.8S714.9,6,717.8,6z M717.8-4.6
				c-15.7,0-23.5-9.7-23.5-29.3c0-18.1,7.8-27.1,23.5-27.1c15.6,0,23.5,9,23.5,27.1C741.3-14.3,733.4-4.6,717.8-4.6z"/>
		</g>
	</g>
</g>
<g>
	<g transform="translate(216.310858, 286.94914)">
		<g>
			<path class="st0" d="M784.8-70.2h-28c-1.4,0-2.8,0.6-3.7,1.7c-1,1.2-1.5,2.4-1.5,4V0.3c0,1.6,0.5,3,1.5,4
				c0.9,1.2,2.3,1.7,3.7,1.7s2.6-0.5,3.7-1.7c1-1.1,1.6-2.5,1.6-4v-19.1h23.1c2.6,0,5-0.4,7.4-1.2c2.4-0.8,4.7-2.2,6.8-4
				c2.2-1.8,4-4.7,5.3-8.3c1.2-3.6,1.9-7.9,1.9-13c0-8.1-2.3-14.3-6.7-18.6C795.5-68,790.5-70.2,784.8-70.2z M762.1-59.6h22.6
				c7.8,0,11.7,4.8,11.7,14.3c0,10.6-4,15.9-11.7,15.9h-22.6V-59.6z"/>
		</g>
	</g>
</g>
<g>
	<g transform="translate(232.499975, 286.94914)">
		<g>
			<path class="st0" d="M818.7-35.9v-23.6h31.9c1.3,0,2.5-0.5,3.5-1.6c1-1,1.5-2.2,1.5-3.7c0-1.4-0.5-2.7-1.5-3.8
				c-0.9-1.1-2.2-1.6-3.5-1.6h-37.1c-1.5,0-2.8,0.6-3.7,1.7c-1,1.2-1.5,2.4-1.5,4V0.3c0,1.6,0.5,3,1.5,4c0.9,1.2,2.2,1.7,3.7,1.7
				h37.1c1.3,0,2.5-0.5,3.5-1.5c1-1.1,1.5-2.2,1.5-3.8c0-1.4-0.5-2.7-1.5-3.8c-0.9-1-2.2-1.5-3.5-1.5h-31.9v-20.8h25.1
				c1.3,0,2.5-0.5,3.5-1.5c1-1.1,1.5-2.2,1.5-3.8c0-1.4-0.5-2.7-1.5-3.8c-0.9-1-2.2-1.5-3.5-1.5L818.7-35.9L818.7-35.9z"/>
		</g>
	</g>
</g>
<g>
	<g transform="translate(248.171929, 286.94914)">
		<g>
			<path class="st0" d="M908.7-1.4L907.6-5c-1.4-4.8-2.8-8.7-4.2-11.5c-1.3-2.8-3.1-5.4-5.5-8c3.2-0.9,5.9-2.8,7.9-5.7
				c1.9-2.9,3.2-5.6,3.8-8.3c0.6-2.6,0.9-5.3,0.9-7.8c0-8.2-2.2-14.2-6.5-18.1s-9.4-5.9-15.1-5.9H862c-1.5,0-2.8,0.6-3.7,1.7
				c-1,1.2-1.5,2.4-1.5,4V0.2c0,1.6,0.5,3,1.5,4c0.9,1.2,2.2,1.7,3.7,1.7c1.4,0,2.6-0.5,3.7-1.7c1-1.1,1.5-2.5,1.5-4v-21.1H883
				c6,0,10.3,4.6,13.1,13.7l2.9,9.6c0.7,2.5,2.3,3.6,4.8,3.6c1.3,0,2.5-0.5,3.6-1.5c0.9-1.1,1.5-2.4,1.5-3.9
				C908.9-0.4,908.8-0.9,908.7-1.4z M888.1-31.6h-20.7v-28.1h20.7c3.6,0,6.6,1,8.8,2.8s3.4,5.4,3.4,10.7c0,3.5-0.4,6.3-1,8.4
				c-0.7,2.1-1.7,3.6-3.1,4.4s-2.6,1.3-3.6,1.6C891.4-31.6,890-31.6,888.1-31.6z"/>
		</g>
	</g>
</g>
<g>
	<g transform="translate(290.154039, 202.598005)">
		<g>
			<path class="st1" d="M127.7-37l0.2,10.7c0,0.8,0.3,1.4,0.7,2c0.5,0.6,1,0.9,1.6,1.1l48.3,14c0.6,0.2,0.8,0.6,0.8,1.1
				s-0.2,0.9-0.8,1l-47.8,16c-0.6,0.2-1.1,0.6-1.6,1.2c-0.4,0.6-0.6,1.3-0.6,2l0.2,10.7c0,1.2,0.5,2,1.3,2.7s1.7,0.7,2.7,0.4
				l72-24.1c0.6-0.2,1.2-0.6,1.6-1.2c0.5-0.5,0.6-1.2,0.6-2l-0.3-14.7c0-0.7-0.2-1.4-0.7-1.9c-0.4-0.5-1-0.9-1.6-1.2l-72.8-21
				c-1-0.2-1.9,0-2.7,0.7C128.1-39,127.7-38.1,127.7-37z"/>
		</g>
	</g>
</g>
<g>
	<g transform="translate(73.821372, 171.986533)">
		<g>
			<path class="st1" d="M6.9,52.7V42.1c0-0.8-0.2-1.4-0.6-2c-0.5-0.6-0.9-0.9-1.6-1.1l-48.1-15c-0.6-0.2-0.8-0.6-0.8-1.1
				s0.2-0.8,0.8-1l48.1-15c0.6-0.2,1.1-0.6,1.6-1.2c0.4-0.6,0.6-1.3,0.6-2V-7c0-1.2-0.5-2-1.3-2.7s-1.7-0.8-2.7-0.4l-72.4,22.5
				c-0.6,0.2-1.2,0.6-1.6,1.2c-0.5,0.5-0.6,1.2-0.6,2v14.8c0,0.7,0.2,1.4,0.6,2c0.4,0.5,0.9,0.9,1.6,1.2L2.9,56
				c0.9,0.3,1.9,0.1,2.7-0.6C6.4,54.7,6.9,53.8,6.9,52.7z"/>
		</g>
	</g>
</g>
<g>
	<g transform="translate(114.626152, 238.794788)">
		<g>
			<path class="st0" d="M172-198.9h-25.5c-3.7,0-6.8,1.4-9.5,4.2c-2.6,2.8-3.7,6.2-3.7,10.2v159c0,9.1-1.1,17-3.2,23.5
				c-2.1,6.5-4.7,11.9-7.9,16.2c-3.1,4.3-6.8,7.4-11,9.4c-4.2,2.3-8.4,3.1-12.6,3.1c-7.9,0-15-3.1-21.5-9.6
				c-6.6-6.2-10.8-16.4-12.6-30c-0.5-3.4-1.8-6.5-4.2-8.8c-2.6-2.3-5.5-3.7-8.9-3.7H25.6c-3.9,0-7.1,1.7-9.7,4.8S12-13.8,12.5-9.8
				c0.5,7.9,1.8,15,3.7,21.5c1.8,6.5,3.9,12.5,6.3,17.6c2.1,5.1,4.7,9.9,7.4,13.9s5.3,7.7,7.9,10.5c7.9,9.4,17.1,16.4,27.6,21.5
				s21.8,7.7,33.4,7.7c10.5,0,21-2.3,31.5-6.8s19.7-11.6,27.9-20.7c8.1-9.1,14.7-20.1,19.7-33.7s7.6-29.2,7.6-47v-159
				c0-4-1.3-7.4-3.9-10.2C178.8-197.5,175.7-198.9,172-198.9z"/>
		</g>
	</g>
</g>
<g>
	<g transform="translate(206.120016, 234.514569)">
		<g>
			<path class="st0" d="M146.1,76.5h-34.8V-32.3h34.8V76.5z M110.4-59.4c0-5.6,1.4-9.8,4.4-12.6c2.9-2.8,7.6-4.1,14.1-4.1
				c6.5,0,11.2,1.4,14.1,4.2c3,2.8,4.4,7,4.4,12.5c0,11-6.2,16.5-18.6,16.5C116.5-42.9,110.4-48.4,110.4-59.4z"/>
		</g>
	</g>
</g>
</svg>
